<?xml version="1.0" standalone="no"?><!DOCTYPE svg PUBLIC "-//W3C//DTD SVG 1.1//EN" "http://www.w3.org/Graphics/SVG/1.1/DTD/svg11.dtd"><svg t="1554986078602" class="icon" style="" viewBox="0 0 1024 1024" version="1.1" xmlns="http://www.w3.org/2000/svg" p-id="3952" xmlns:xlink="http://www.w3.org/1999/xlink" width="250" height="250"><defs><style type="text/css"></style></defs><path d="M559.6 171.8c-35-29-60.2-29-95.2 0L148 432h728L559.6 171.8z" fill="#FAD996" p-id="3953"></path><path d="M876 432L559.6 171.8C542 157.2 527 150 512 150v282h364z" fill="#F7C872" p-id="3954"></path><path d="M559.6 694.2c-35 29-60.2 29-95.2 0L148 432v402c0 22 18 40 40 40h648c22 0 40-18 40-40V432L559.6 694.2z" fill="#FAD996" p-id="3955"></path><path d="M180 433h2.2l-1.2-1zM843 432l-1.2 1h2.2zM555.4 195.8c-32-26.4-55-26.4-86.8 0L182.2 433l286.4 237.2c32 26.4 55 26.4 86.8 0l286.4-237.2L555.4 195.8z" fill="#FFFFFF" p-id="3956"></path><path d="M512 176v514c13.8 0 27.4-6.6 43.4-19.8l286.4-237.2L555.4 195.8c-16-13.2-29.6-19.8-43.4-19.8z" fill="#F9F6F4" p-id="3957"></path><path d="M332 256h362c11 0 20 9 20 20v430c0 11-9 20-20 20H332c-11 0-20-9-20-20V276c0-11 9-20 20-20z" fill="#8CD5CA" p-id="3958"></path><path d="M694 256h-182v470h182c11 0 20-9 20-20V276c0-11-9-20-20-20z" fill="#71C6B8" p-id="3959"></path><path d="M876 432v402c0 22-18 40-40 40H188c-22 0-40-18-40-40V432h33.2l287.4 238.2c32 26.4 55 26.4 86.8 0L843 432H876z" fill="#FAD996" p-id="3960"></path><path d="M555.4 670.2c-16 13.2-29.6 19.8-43.4 19.8v184h324c22 0 40-18 40-40V432h-33L555.4 670.2z" fill="#F7C872" p-id="3961"></path><path d="M364 364h284v14H364z" fill="#F17954" p-id="3962"></path><path d="M512 364h136v14h-136z" fill="#D85735" p-id="3963"></path><path d="M364 408h186v14h-186z" fill="#F17954" p-id="3964"></path><path d="M512 408h38v14h-38z" fill="#D85735" p-id="3965"></path><path d="M364 448h268v14H364z" fill="#F17954" p-id="3966"></path><path d="M512 448h120v14h-120z" fill="#D85735" p-id="3967"></path><path d="M364 486h254v14H364z" fill="#F17954" p-id="3968"></path><path d="M512 486h106v14h-106z" fill="#D85735" p-id="3969"></path><path d="M476 594.6l-5.6-3.2-28.2 16.2V602l-5.6-3.2-5.6 3.2-0.2 12-23.2 13.4v-12.2L402 612l-5.6 3.2-0.2 18.6-11.8 6.8-15.6-9V618l16-9.4v-6.4l-5.6-3.2-10.4 6.2v-26.8l10.2-6V566l-5.6-3.2-4.8 2.8v-32.4L364 530l-5.6 3.2v32.4l-4.8-2.8-5.6 3.2v6.4l10.2 6v26.8l-10.6-6.2-5.6 3.2v6.4l16 9.4v13.6l-15.6 9-11.8-6.8-0.2-18.4-5.6-3.2-5.6 3.2 0.2 12.2-23.2-13.4-0.2-11.8-5.6-3.2-5.6 3.2v5.4l-28.2-16.2-5.6 3.2v6.4l28.2 16.2-4.8 2.8v6.4l5.6 3.2 10.4-5.8 23.2 13.4-10.6 6v6.4l5.6 3.2 16.2-9.2 11.8 6.8v18l-11.8 6.8-16.2-9.2-5.6 3.2v6.4l10.6 6-23.2 13.4-10.4-5.8-5.6 3.2v6.4l4.8 2.6-28.2 16.2v6.4l5.6 3.2 28.2-16.2v5.6l5.6 3.2 5.6-3.2 0.2-12 23.2-13.4-0.2 12.2 5.6 3.2 5.6-3.2 0.2-18.6 11.8-6.8 15.6 9v13.6l-16 9.4v6.4l5.6 3.2 10.4-6.2v26.8l-10.2 6v6.4l5.6 3.2 4.8-2.8v32.4l5.6 3.2 5.6-3.2v-32.4l4.8 2.8 5.6-3.2v-6.4l-10.4-6v-26.8l10.6 6.2 5.6-3.2v-6.4l-16-9.4v-13.6l15.6-9 11.8 6.8 0.2 18.4 5.6 3.2 5.6-3.2-0.2-12.2 23.2 13.4 0.2 11.8 5.6 3.2 5.6-3.2v-5.4l28.2 16.2 5.6-3.2v-6.4l-28.2-16.2 4.8-2.8v-6.4l-5.6-3.2-10.4 5.8-23.2-13.4 10.6-6v-6.4l-5.6-3.2-16.2 9.2-11.8-6.8v-18l11.8-6.8 16.2 9.2 5.6-3.2v-6.4l-10.6-6 23.2-13.4 10.4 5.8 5.6-3.2v-6.4l-4.8-2.6 28.2-16.2-0.6-6.4z" fill="#FFFFFF" p-id="3970"></path></svg>