<?xml version="1.0" standalone="no"?><!DOCTYPE svg PUBLIC "-//W3C//DTD SVG 1.1//EN" "http://www.w3.org/Graphics/SVG/1.1/DTD/svg11.dtd"><svg t="1551419323934" class="icon" style="" viewBox="0 0 1024 1024" version="1.1" xmlns="http://www.w3.org/2000/svg" p-id="1571" xmlns:xlink="http://www.w3.org/1999/xlink" width="200" height="200"><defs><style type="text/css"></style></defs><path d="M704.704 845.632l-435.2-96a112 112 0 1 1-107.072-172.8l72.896-336.576A95.936 95.936 0 0 1 288 64a96 96 0 0 1 91.136 65.856l400.448-14.208a96 96 0 1 1 76.032 139.904l-71.296 224.896a80 80 0 1 1-137.536 79.936L496.128 554.24a64 64 0 1 1-59.84-105.152l37.12-81.28a64 64 0 1 1 69.376 33.024L506.88 478.976l145.984 5.248a80 80 0 0 1 60.992-36.096l73.344-231.424a95.744 95.744 0 0 1-12.864-24.064l-402.688 14.272c-12.8 22.784-34.688 39.808-60.672 46.208L237.248 594.24c27.136 17.728 46.08 46.912 49.984 80.64l432.576 95.424a128 128 0 1 1-15.104 75.328z" p-id="1572" fill="#44a0b3"></path></svg>