<?xml version="1.0" standalone="no"?><!DOCTYPE svg PUBLIC "-//W3C//DTD SVG 1.1//EN" "http://www.w3.org/Graphics/SVG/1.1/DTD/svg11.dtd"><svg t="1551419313363" class="icon" style="" viewBox="0 0 1024 1024" version="1.1" xmlns="http://www.w3.org/2000/svg" p-id="1404" xmlns:xlink="http://www.w3.org/1999/xlink" width="200" height="200"><defs><style type="text/css"></style></defs><path d="M514.3 173.8c12-19.1 28-32.2 47.6-38.3-9.9-18.4-9.7-39 0.6-58.3 12.4-23.1 38.1-41.2 67.6-48.4 29.3-7.2 71.4-9.6 110.8-5.4 49.4 5.3 91.9 20.1 121.7 45.9 33.5 29.1 42.1 66.2 24.6 98.1-15.3 27.9-48 46-82.7 46-31.6 0-75-4.5-113.8-12.4-27.6-5.6-51.9-12.5-71.9-20.9-0.5-0.1-1-0.3-1.6-0.5-18.5-6.3-32.9-6.9-43.9-2.9-9.2 3.3-16.8 9.9-23.1 20-11.2 18.1-17 45.8-17 71v35.2l300.3 42.8c7.8-39 42.3-68.4 83.7-68.4 47.1 0 85.3 38.2 85.3 85.3s-38 85.4-85.2 85.4c-37.9 0-69.9-24.6-81.1-58.8L533.3 346v83.5l221.8 40.3c11.6 2.1 19.3 13.2 17.2 24.8-2.1 11.6-13.2 19.3-24.8 17.2l-214.2-38.9v98.4l235 33.5c13.4-29.6 43.2-50.2 77.8-50.2 47.1 0 85.3 38.2 85.3 85.3s-38.2 85.3-85.3 85.3c-44.8 0-81.5-34.5-85.1-78.4l-227.7-32.5v70.9l185 30.4c11.6 1.9 19.5 12.9 17.6 24.5-1.9 11.6-12.9 19.5-24.5 17.6l-178.1-29.3v98.8l127.8 17.1c13.3-29.8 43.2-50.5 77.9-50.5 47.1 0 85.3 38.2 85.3 85.3s-38.2 85.3-85.3 85.3c-44.7 0-81.3-34.3-85-78.1l-120.7-16.2V981c0 11.8-9.6 21.3-21.3 21.3-11.8 0-21.3-9.6-21.3-21.3v-33.4L450.6 963c-11 4.2-23.3-1.3-27.6-12.3-4.2-11 1.3-23.3 12.3-27.6l55.4-21.2v-80.5l-82.9 27.8c0.1 1.3 0.1 2.5 0.1 3.8 0 47.1-38.2 85.3-85.3 85.3s-85.3-38.2-85.3-85.3 38.2-85.3 85.3-85.3c30.8 0 57.7 16.3 72.7 40.7l95.4-32V684l-139.2 43.3c-11.3 3.5-23.2-2.8-26.7-14s2.8-23.2 14-26.7l151.9-47.2v-86.8l-214.4 63c0.7 4.4 1.1 9 1.1 13.6 0 47.1-38.2 85.3-85.3 85.3s-85.3-38.2-85.3-85.3 38.2-85.3 85.3-85.3c27.1 0 51.3 12.7 66.9 32.4l231.7-68.1v-107l-214.5 67.1c-11.2 3.5-23.2-2.7-26.7-14s2.7-23.2 14-26.7l227.3-71.1v-80.8L191 370.4c0.7 4.4 1.1 9 1.1 13.6 0 47.1-38.2 85.3-85.3 85.3S21.3 431.1 21.3 384s38.2-85.3 85.3-85.3c27.1 0 51.3 12.7 66.9 32.4l315.2-99.6c-1.8-20.9-8-34.8-17.9-42.6-14.2-11.1-40.2-12.9-78.6-2.8-1.6 0.4-3.3 0.7-4.9 0.7-16.1 5.5-34.3 10.2-54.1 14.2-38.9 7.9-82.3 12.4-113.8 12.4-34.7 0-67.4-18.1-82.7-46-17.4-31.9-8.9-69.1 24.6-98.1 29.8-25.8 72.3-40.6 121.7-45.9 39.4-4.2 81.5-1.8 110.8 5.4 29.5 7.2 55.2 25.3 67.6 48.4 11 20.5 10.4 42.5-1.4 61.7 14.2 2.7 26.6 8.1 37.1 16.4 6.8 5.3 12.5 11.4 17.2 18.5z m184.9-14.6c36.1 7.3 76.7 11.6 105.4 11.6 19.6 0 37.7-10 45.2-23.8 7.4-13.5 3.8-29-15.1-45.4-22.2-19.2-56.8-31.3-98.3-35.7-34.6-3.7-71.7-1.5-96.1 4.4-18.4 4.5-33.9 15.4-40.2 27.1-5.3 9.8-3.4 18.6 8.5 28.3 15.9 13.1 48.6 25 90.6 33.5zM106.7 426.7c23.6 0 42.7-19.1 42.7-42.7s-19.1-42.7-42.7-42.7S64 360.4 64 384s19.1 42.7 42.7 42.7zM192 671.8c23.6 0 42.7-19.1 42.7-42.7s-19.1-42.7-42.7-42.7-42.7 19.1-42.7 42.7 19.1 42.7 42.7 42.7zM322.5 896c23.6 0 42.7-19.1 42.7-42.7s-19.1-42.7-42.7-42.7-42.7 19.1-42.7 42.7S299 896 322.5 896z m416.6 26c23.6 0 42.7-19.1 42.7-42.7s-19.1-42.7-42.7-42.7-42.7 19.1-42.7 42.7 19.1 42.7 42.7 42.7z m178.2-516.7c23.6 0 42.7-19.1 42.7-42.7S940.9 320 917.3 320s-42.7 19.1-42.7 42.7 19.2 42.6 42.7 42.6z m-71.2 277.4c23.6 0 42.7-19.1 42.7-42.7s-19.1-42.7-42.7-42.7-42.7 19.1-42.7 42.7 19.1 42.7 42.7 42.7z m-430.7-557c11.9-9.8 13.7-18.5 8.5-28.3-6.3-11.7-21.8-22.6-40.2-27.1-24.4-6-61.5-8.1-96.1-4.4-41.5 4.4-76.1 16.5-98.3 35.7-19 16.4-22.5 31.9-15.1 45.4 7.5 13.8 25.7 23.8 45.2 23.8 28.7 0 69.3-4.2 105.4-11.6 42-8.5 74.7-20.4 90.6-33.5z" fill="#44a0b3" p-id="1405"></path></svg>