<?xml version="1.0" standalone="no"?><!DOCTYPE svg PUBLIC "-//W3C//DTD SVG 1.1//EN" "http://www.w3.org/Graphics/SVG/1.1/DTD/svg11.dtd"><svg t="1551419181008" class="icon" style="" viewBox="0 0 1024 1024" version="1.1" xmlns="http://www.w3.org/2000/svg" p-id="1016" data-spm-anchor-id="a313x.7781069.0.i1" xmlns:xlink="http://www.w3.org/1999/xlink" width="200" height="200"><defs><style type="text/css"></style></defs><path d="M491.072 542.464c93.376-63.808 145.28-188.544 143.04-299.072 156.8 359.232-106.88 715.52-372.928 716.608h-2.432a289.152 289.152 0 0 1-120.64-26.752c-171.2-78.592-183.936-297.92-34.24-367.36 60.8-28.16 121.152-16.256 181.312-4.288 68.928 13.696 137.472 27.392 205.888-19.136z m435.2 390.208c-109.888 0-262.336-182.272-256.768-324.096 35.84 115.584 148.544 89.984 245.248 112.768 76.16 18.24 120.96 76.928 106.56 133.888-13.76 55.232-56.896 77.44-94.976 77.44zM410.88 64h1.536c55.936 0.192 158.336 22.912 219.008 172.032 0 0-57.408-93.44-154.112-54.144 0 0-17.664 5.12-33.664 25.088 23.68 35.328 30.336 81.984 12.672 124.736-27.072 65.536-100.48 96.256-164.608 68.352-39.744-17.088-65.728-52.992-73.984-92.8 0 0-19.328-67.84 25.92-145.92 22.144-38.72 64.128-78.592 129.28-93.376 0 0 14.848-3.84 37.952-3.968z" p-id="1017" fill="#44a0b3"></path></svg>